<!DOCTYPE svg PUBLIC "-//W3C//DTD SVG 1.1//EN" "http://www.w3.org/Graphics/SVG/1.1/DTD/svg11.dtd">
<!-- Uploaded to: SVG Repo, www.svgrepo.com, Transformed by: SVG Repo Mixer Tools -->
<svg fill="#61ffca" height="800px" width="800px" version="1.1" id="Layer_1" xmlns="http://www.w3.org/2000/svg" xmlns:xlink="http://www.w3.org/1999/xlink" viewBox="0 0 512 512" xml:space="preserve" stroke="#61ffca">
<g id="SVGRepo_bgCarrier" stroke-width="0"/>
<g id="SVGRepo_tracerCarrier" stroke-linecap="round" stroke-linejoin="round"/>
<g id="SVGRepo_iconCarrier"> <g> <g> <path d="M200.387,102.614h-8.551c-4.427,0-8.017,3.589-8.017,8.017s3.589,8.017,8.017,8.017h0.534v9.62h-18.171V92.994h26.188 c4.427,0,8.017-3.589,8.017-8.017s-3.589-8.017-8.017-8.017h-34.205c-4.427,0-8.017,3.589-8.017,8.017v51.307 c0,4.427,3.589,8.017,8.017,8.017h34.205c4.427,0,8.017-3.589,8.017-8.017V110.63 C208.404,106.203,204.814,102.614,200.387,102.614z"/> </g> </g> <g> <g> <path d="M234.592,76.96c-4.427,0-8.017,3.589-8.017,8.017v51.307c0,4.427,3.589,8.017,8.017,8.017s8.017-3.589,8.017-8.017V84.977 C242.608,80.55,239.019,76.96,234.592,76.96z"/> </g> </g> <g> <g> <path d="M294.45,102.614h-17.102c-0.181,0-0.357,0.015-0.534,0.027v-9.647h17.637c4.427,0,8.017-3.589,8.017-8.017 s-3.589-8.017-8.017-8.017h-25.653c-4.427,0-8.017,3.589-8.017,8.017v51.307c0,4.427,3.589,8.017,8.017,8.017 c4.427,0,8.017-3.589,8.017-8.017V118.62c0.177,0.012,0.354,0.027,0.534,0.027h17.102c4.427,0,8.017-3.589,8.017-8.017 S298.877,102.614,294.45,102.614z"/> </g> </g> <g> <g> <path d="M354.308,222.33c-37.426,0-67.875,30.449-67.875,67.875c0,37.426,30.448,67.875,67.875,67.875 c37.426,0,67.875-30.448,67.875-67.875C422.182,252.778,391.734,222.33,354.308,222.33z M354.308,342.046 c-28.585,0-51.841-23.256-51.841-51.841c0-28.585,23.256-51.841,51.841-51.841c28.585,0,51.841,23.256,51.841,51.841 S382.893,342.046,354.308,342.046z"/> </g> </g> <g> <g> <path d="M410.832,455.141L171.4,249.914c-5.101-4.373-13.234-0.617-13.234,6.086v205.228h0c0,4.427,3.589,8.017,8.017,8.017 h239.432C412.885,469.244,416.366,459.884,410.832,455.141z M174.199,453.211V273.43l209.744,179.78H174.199z"/> </g> </g> <g> <g> <path d="M431.268,367.699h-34.205c-4.427,0-8.017,3.589-8.017,8.017v34.205c0,4.427,3.589,8.017,8.017,8.017h34.205 c4.427,0,8.017-3.589,8.017-8.017v-34.205C439.285,371.289,435.695,367.699,431.268,367.699z M423.251,401.904H405.08v-18.171 h18.171V401.904z"/> </g> </g> <g> <g> <path d="M260.245,222.33H226.04c-4.427,0-8.017,3.589-8.017,8.017v34.205c0,4.427,3.589,8.017,8.017,8.017h34.205 c4.427,0,8.017-3.589,8.017-8.017v-34.205C268.262,225.919,264.672,222.33,260.245,222.33z M252.228,256.534h-18.171v-18.171 h18.171V256.534z"/> </g> </g> <g> <g> <path d="M499.677,426.489c4.427,0,8.017-3.589,8.017-8.017V84.977c0-2.1-0.863-4.184-2.348-5.668l-76.96-76.96 C426.899,0.863,424.817,0,422.716,0H106.323C92.473,0,81.204,11.268,81.204,25.119v9.086H12.261 c-6.987,0-10.616,8.738-5.668,13.685l62.741,62.741l-62.74,62.741c-4.947,4.947-1.32,13.685,5.668,13.685h68.944v299.825 c0,13.851,11.268,25.119,25.119,25.119h376.251c13.851,0,25.119-11.268,25.119-25.119v-34.205c0-4.427-3.589-8.017-8.017-8.017 s-8.017,3.589-8.017,8.017v34.205c0,5.01-4.076,9.086-9.086,9.086H106.324c-5.01,0-9.086-4.076-9.086-9.086V187.056h51.841 c4.427,0,8.017-3.589,8.017-8.017s-3.589-8.017-8.017-8.017H31.615l54.724-54.724c3.131-3.131,3.131-8.207,0-11.337L31.615,50.238 h348.88v120.785H183.285c-4.427,0-8.017,3.589-8.017,8.017s3.589,8.017,8.017,8.017h205.228c4.427,0,8.017-3.589,8.017-8.017 V42.221c0-4.427-3.589-8.017-8.017-8.017H97.239v-9.086c0-5.01,4.076-9.086,9.086-9.086H414.7v51.841 c0,13.851,11.268,25.119,25.119,25.119h51.841v325.478C491.66,422.9,495.25,426.489,499.677,426.489z M439.818,76.96 c-5.01,0-9.086-4.076-9.086-9.086V27.37l49.59,49.59H439.818z"/> </g> </g> </g>
</svg>