<!DOCTYPE svg PUBLIC "-//W3C//DTD SVG 1.1//EN" "http://www.w3.org/Graphics/SVG/1.1/DTD/svg11.dtd">
<!-- Uploaded to: SVG Repo, www.svgrepo.com, Transformed by: SVG Repo Mixer Tools -->
<svg fill="#61ffca" height="800px" width="800px" version="1.1" id="Layer_1" xmlns="http://www.w3.org/2000/svg" xmlns:xlink="http://www.w3.org/1999/xlink" viewBox="0 0 512 512" xml:space="preserve">
<g id="SVGRepo_bgCarrier" stroke-width="0"/>
<g id="SVGRepo_tracerCarrier" stroke-linecap="round" stroke-linejoin="round"/>
<g id="SVGRepo_iconCarrier"> <g> <g> <path d="M499.677,426.489c4.427,0,8.017-3.589,8.017-8.017V84.977c0-2.1-0.863-4.184-2.348-5.668l-76.96-76.96 C426.902,0.865,424.815,0,422.716,0H106.323C92.473,0,81.204,11.268,81.204,25.119v9.086H12.261 c-6.987,0-10.616,8.738-5.668,13.685l62.741,62.741l-62.74,62.741c-4.947,4.947-1.32,13.685,5.668,13.685h68.944v299.825 c0,13.851,11.268,25.119,25.119,25.119h376.251c13.851,0,25.119-11.268,25.119-25.119v-34.205c0-4.427-3.589-8.017-8.017-8.017 s-8.017,3.589-8.017,8.017v34.205c0,5.01-4.076,9.086-9.086,9.086H106.324c-5.01,0-9.086-4.076-9.086-9.086V187.056h51.841 c4.427,0,8.017-3.589,8.017-8.017s-3.589-8.017-8.017-8.017H31.615l54.724-54.724c3.131-3.131,3.131-8.207,0-11.337L31.615,50.238 h348.88v120.785H183.285c-4.427,0-8.017,3.589-8.017,8.017s3.589,8.017,8.017,8.017h205.228c4.427,0,8.017-3.589,8.017-8.017 V42.221c0-4.427-3.589-8.017-8.017-8.017H97.239v-9.086c0-5.01,4.076-9.086,9.086-9.086H414.7v51.841 c0,13.851,11.268,25.119,25.119,25.119h51.841v325.478C491.66,422.9,495.25,426.489,499.677,426.489z M439.818,76.96 c-5.01,0-9.086-4.076-9.086-9.086V27.37l49.59,49.59H439.818z"/> </g> </g> <g> <g> <path d="M194.719,79.309l-19.985,19.985l-19.985-19.985c-4.946-4.948-13.685-1.318-13.685,5.668v51.307 c0,4.427,3.589,8.017,8.017,8.017s8.017-3.589,8.017-8.017V104.33l11.968,11.968c3.131,3.131,8.207,3.131,11.337,0l11.968-11.968 v31.953c0,4.427,3.589,8.017,8.017,8.017s8.017-3.589,8.017-8.017V84.977C208.404,77.991,199.665,74.361,194.719,79.309z"/> </g> </g> <g> <g> <path d="M260.245,76.96H226.04c-4.427,0-8.017,3.589-8.017,8.017v51.307c0,4.427,3.589,8.017,8.017,8.017s8.017-3.589,8.017-8.017 v-17.655c0.177,0.012,0.355,0.018,0.534,0.018h25.653c4.427,0,8.017-3.589,8.017-8.017V84.977 C268.262,80.55,264.672,76.96,260.245,76.96z M252.228,102.614h-17.637c-0.18,0-0.357,0.005-0.534,0.018v-9.638h18.171V102.614z"/> </g> </g> <g> <g> <path d="M320.103,102.614h-8.551c-4.427,0-8.017,3.589-8.017,8.017s3.589,8.017,8.017,8.017h0.534v9.62h-18.171V92.994h26.188 c4.427,0,8.017-3.589,8.017-8.017s-3.589-8.017-8.017-8.017h-34.205c-4.427,0-8.017,3.589-8.017,8.017v51.307 c0,4.427,3.589,8.017,8.017,8.017h34.205c4.427,0,8.017-3.589,8.017-8.017V110.63C328.12,106.203,324.53,102.614,320.103,102.614z "/> </g> </g> <g> <g> <path d="M422.717,299.29H257.814l162.397-28.636c4.296-0.758,7.261-4.985,6.503-9.287l-5.94-33.685 c-0.768-4.36-4.924-7.268-9.286-6.503l-252.637,44.547c-4.36,0.769-7.272,4.927-6.503,9.287l5.818,32.995v153.219 c0,4.427,3.589,8.017,8.017,8.017h51.307c4.427,0,8.017-3.589,8.017-8.017c0-4.427-3.589-8.017-8.017-8.017h-43.29V349.528H414.7 v103.683H251.694c-4.427,0-8.017,3.589-8.017,8.017c0,4.427,3.589,8.017,8.017,8.017h171.023c4.427,0,8.017-3.589,8.017-8.017 V307.307C430.734,302.88,427.144,299.29,422.717,299.29z M392.278,240.848l14.099-2.486l3.155,17.895l-31.994,5.642 L392.278,240.848z M324.909,252.728l45.039-7.943l-14.739,21.051l-45.04,7.942L324.909,252.728z M257.539,264.607l45.04-7.942 l-14.74,21.051l-45.04,7.942L257.539,264.607z M172.686,298.02l-3.155-17.895l65.678-11.581l-14.739,21.051L172.686,298.02z M188.516,333.495h-14.317v-18.171h32.488L188.516,333.495z M256.924,333.495h-45.735l18.171-18.171h45.735L256.924,333.495z M325.333,333.495h-45.735l18.171-18.171h45.735L325.333,333.495z M414.7,333.495h-66.693l18.171-18.171H414.7V333.495z"/> </g> </g> <g> <g> <path d="M333.662,395.109l-42.756-34.205c-5.153-4.123-13.024-0.318-13.024,6.259v68.409c0,4.365,3.645,8.018,8.016,8.018 c1.787,0,3.559-0.597,5.009-1.757l42.756-34.205C337.612,404.47,337.612,398.269,333.662,395.109z M293.915,418.895v-35.051 l21.906,17.526L293.915,418.895z"/> </g> </g> </g>
</svg>